<svg width="316" height="282" viewBox="0 0 316 282" fill="none" xmlns="http://www.w3.org/2000/svg">
<path d="M312.816 131.971C309.253 114.543 302.997 97.5292 295.557 81.8892C282.733 54.9068 261.721 32.5008 234.84 19.2C168.88 -13.44 121.28 0.159995 95.4402 26.68C69.6002 53.2 77.0802 98.76 49.2002 118.48C21.3202 138.2 1.60023 147.04 0.240225 183.08C-1.11977 219.12 16.5602 246.32 45.1202 255.16C73.6802 264 116.52 292.56 202.2 276.24C287.88 259.92 308.96 214.36 314.4 181.72C317.12 165.298 316.182 148.448 312.816 131.971Z" fill="#CBCBCB"/>
<path opacity="0.7" d="M312.816 131.971C309.253 114.543 302.997 97.5292 295.557 81.8892C282.733 54.9068 261.721 32.5008 234.84 19.2C168.88 -13.44 121.28 0.159995 95.4402 26.68C69.6002 53.2 77.0802 98.76 49.2002 118.48C21.3202 138.2 1.60023 147.04 0.240225 183.08C-1.11977 219.12 16.5602 246.32 45.1202 255.16C73.6802 264 116.52 292.56 202.2 276.24C287.88 259.92 308.96 214.36 314.4 181.72C317.12 165.298 316.182 148.448 312.816 131.971Z" fill="white"/>
</svg>
